<svg width="75" height="25" viewBox="0 0 75 25" fill="none" xmlns="http://www.w3.org/2000/svg">
<path d="M1.43555 22.8574C1.39648 20.377 1.34766 18.2578 1.28906 16.5C1.25 14.7227 1.21094 13.2285 1.17188 12.0176C1.13281 10.8066 1.08398 9.84961 1.02539 9.14648C0.986328 8.42383 0.957031 7.84766 0.9375 7.41797C0.917969 6.98828 0.898438 6.68555 0.878906 6.50977C0.859375 6.31445 0.849609 6.12891 0.849609 5.95312C0.849609 5.62109 0.947266 5.41602 1.14258 5.33789C1.33789 5.24023 1.58203 5.19141 1.875 5.19141C2.20703 5.19141 2.46094 5.25977 2.63672 5.39648C2.83203 5.51367 2.92969 5.83594 2.92969 6.36328L3.48633 22.125C3.50586 22.125 3.60352 22.1055 3.7793 22.0664C3.95508 22.0273 4.16016 21.9688 4.39453 21.8906C4.62891 21.8125 4.87305 21.7344 5.12695 21.6562C5.38086 21.5586 5.58594 21.4707 5.74219 21.3926C5.97656 21.2949 6.32812 21.1387 6.79688 20.9238C7.26562 20.709 7.79297 20.4648 8.37891 20.1914C8.96484 19.918 9.58008 19.6348 10.2246 19.3418C10.8887 19.0293 11.5137 18.7461 12.0996 18.4922C12.7051 18.2188 13.2324 17.9746 13.6816 17.7598C14.1504 17.5254 14.502 17.3594 14.7363 17.2617H15.0879C15.2051 17.2617 15.3223 17.2715 15.4395 17.291C15.5566 17.3105 15.6543 17.3594 15.7324 17.4375C15.8105 17.5156 15.8594 17.6328 15.8789 17.7891C15.8789 17.9844 15.8398 18.1504 15.7617 18.2871C15.7031 18.4238 15.6152 18.5801 15.498 18.7559C14.3457 18.9707 13.2129 19.3613 12.0996 19.9277C11.0059 20.4941 9.91211 21.0801 8.81836 21.6855C7.74414 22.291 6.65039 22.8281 5.53711 23.2969C4.44336 23.7656 3.32031 24 2.16797 24C1.67969 24 1.43555 23.6191 1.43555 22.8574ZM16.875 23.2383C16.9336 22.9648 16.9824 22.6133 17.0215 22.1836C17.0605 21.7539 17.1094 21.1875 17.168 20.4844C17.2461 19.7812 17.3242 18.9121 17.4023 17.877C17.5 16.8418 17.627 15.582 17.7832 14.0977C17.9395 12.6133 18.1152 10.875 18.3105 8.88281C18.5254 6.87109 18.7988 4.53711 19.1309 1.88086C19.1504 1.68555 19.2383 1.56836 19.3945 1.5293C19.5703 1.49023 19.7266 1.4707 19.8633 1.4707C20.0781 1.4707 20.2539 1.54883 20.3906 1.70508C20.5273 1.86133 20.6445 2.03711 20.7422 2.23242C20.8594 2.42773 20.9668 2.63281 21.0645 2.84766C21.1621 3.0625 21.2695 3.23828 21.3867 3.375C21.582 3.82422 21.7773 4.3418 21.9727 4.92773C22.1875 5.51367 22.4121 6.13867 22.6465 6.80273C22.8809 7.4668 23.1152 8.14062 23.3496 8.82422C23.584 9.48828 23.8184 10.1426 24.0527 10.7871C24.2871 11.4121 24.502 11.998 24.6973 12.5449C24.9121 13.0723 25.1074 13.5117 25.2832 13.8633C25.498 13.8438 25.8008 13.7656 26.1914 13.6289C26.582 13.4727 27.002 13.3262 27.4512 13.1895C27.9004 13.0527 28.3398 12.9453 28.7695 12.8672C29.1992 12.7891 29.5605 12.7891 29.8535 12.8672C30.1465 12.9258 30.332 13.0918 30.4102 13.3652C30.5078 13.6387 30.4395 14.0684 30.2051 14.6543C30.0684 14.6543 29.9414 14.6348 29.8242 14.5957C29.707 14.5371 29.5898 14.4883 29.4727 14.4492C29.3555 14.3906 29.2285 14.3418 29.0918 14.3027C28.9746 14.2441 28.8379 14.2148 28.6816 14.2148C28.584 14.2148 28.3594 14.2734 28.0078 14.3906C27.6758 14.4883 27.3145 14.6055 26.9238 14.7422C26.5332 14.8594 26.1914 14.9863 25.8984 15.123C25.6055 15.2402 25.459 15.3281 25.459 15.3867L27.4805 23.3262L26.7188 24.4395C26.3867 23.873 26.1035 23.2285 25.8691 22.5059C25.6543 21.7637 25.4492 21.0312 25.2539 20.3086C25.0586 19.5664 24.8535 18.8828 24.6387 18.2578C24.4434 17.6133 24.1895 17.0762 23.877 16.6465C23.4668 16.8418 22.9785 17.0078 22.4121 17.1445C21.8457 17.2812 21.2988 17.457 20.7715 17.6719C20.2441 17.8672 19.7852 18.1406 19.3945 18.4922C19.0234 18.8242 18.7988 19.2832 18.7207 19.8691C18.6816 20.1035 18.6426 20.416 18.6035 20.8066C18.584 21.1973 18.5547 21.5684 18.5156 21.9199C18.457 22.3496 18.4082 22.7891 18.3691 23.2383H16.875ZM20.2441 5.98242L20.1855 6.48047C20.166 6.8125 20.1367 7.20312 20.0977 7.65234C20.0586 8.08203 20.0098 8.53125 19.9512 9C19.9121 9.44922 19.8828 9.83008 19.8633 10.1426C19.7656 11.2363 19.6582 12.3203 19.541 13.3945C19.4434 14.4492 19.3945 15.5332 19.3945 16.6465C19.7656 16.6465 20.1562 16.5977 20.5664 16.5C20.9961 16.4023 21.4062 16.2754 21.7969 16.1191C22.1875 15.9434 22.5391 15.7383 22.8516 15.5039C23.1836 15.25 23.4375 14.9668 23.6133 14.6543C23.457 13.9707 23.2812 13.2676 23.0859 12.5449C22.9102 11.8027 22.7148 11.0605 22.5 10.3184C22.2852 9.55664 22.0508 8.81445 21.7969 8.0918C21.543 7.36914 21.2695 6.66602 20.9766 5.98242C20.957 5.96289 20.8887 5.92383 20.7715 5.86523C20.6543 5.78711 20.4785 5.82617 20.2441 5.98242ZM29.0039 0.210938C29.0234 0.210938 29.0918 0.220703 29.209 0.240234C29.3262 0.259766 29.4531 0.279297 29.5898 0.298828C29.7266 0.298828 29.8535 0.308594 29.9707 0.328125C30.1074 0.347656 30.1855 0.357422 30.2051 0.357422C30.3027 0.357422 30.4492 0.376953 30.6445 0.416016C30.8398 0.435547 30.9375 0.542969 30.9375 0.738281V3.31641C31.2695 3.23828 31.6504 3.0625 32.0801 2.78906C32.5098 2.49609 33.0176 2.20312 33.6035 1.91016C34.1895 1.61719 34.8438 1.37305 35.5664 1.17773C36.2891 0.982422 37.1191 0.933594 38.0566 1.03125C39.502 1.32422 40.5469 1.67578 41.1914 2.08594C41.8359 2.47656 42.1777 2.91602 42.2168 3.4043C42.2559 3.87305 42.0508 4.38086 41.6016 4.92773C41.1719 5.47461 40.5957 6.04102 39.873 6.62695C39.1504 7.19336 38.3398 7.75977 37.4414 8.32617C36.5625 8.89258 35.6934 9.44922 34.834 9.99609C33.9941 10.5234 33.2227 11.0215 32.5195 11.4902C31.8164 11.959 31.2891 12.3789 30.9375 12.75C31.25 12.8867 31.6992 13.1113 32.2852 13.4238C32.8906 13.7168 33.5449 14.0488 34.248 14.4199C34.9707 14.7715 35.7129 15.1523 36.4746 15.5625C37.2559 15.9727 37.9883 16.3535 38.6719 16.7051C39.3555 17.0371 39.9707 17.3398 40.5176 17.6133C41.0645 17.8672 41.4551 18.0332 41.6895 18.1113C41.8848 18.209 42.0703 18.2969 42.2461 18.375C42.3828 18.4727 42.5098 18.5605 42.627 18.6387C42.7637 18.7168 42.832 18.7949 42.832 18.873C42.832 18.9512 42.8027 19.0586 42.7441 19.1953C42.7051 19.332 42.6367 19.459 42.5391 19.5762C42.4414 19.6934 42.334 19.8008 42.2168 19.8984C42.1191 19.9766 42.0215 20.0156 41.9238 20.0156C41.8848 20.0156 41.8359 20.0156 41.7773 20.0156C41.7383 19.9961 41.709 19.9863 41.6895 19.9863C41.6504 19.9668 41.5137 19.9082 41.2793 19.8105C41.0645 19.6934 40.8301 19.5664 40.5762 19.4297C40.3418 19.293 40.1074 19.1758 39.873 19.0781C39.6582 18.9609 39.5215 18.8926 39.4629 18.873C39.248 18.7949 38.8965 18.6484 38.4082 18.4336C37.9395 18.1992 37.4023 17.9453 36.7969 17.6719C36.2109 17.3789 35.5859 17.0664 34.9219 16.7344C34.2578 16.4023 33.623 16.0898 33.0176 15.7969C32.4316 15.5039 31.8945 15.25 31.4062 15.0352C30.9375 14.8203 30.5957 14.6934 30.3809 14.6543V23.6191H29.0625L29.0039 0.210938ZM30.9375 5.25C30.8984 5.60156 30.8594 6.01172 30.8203 6.48047C30.7812 6.94922 30.7324 7.4375 30.6738 7.94531C30.6348 8.45312 30.5957 8.96094 30.5566 9.46875C30.5371 9.97656 30.5273 10.4453 30.5273 10.875C30.6055 10.7773 30.8789 10.6113 31.3477 10.377C31.8164 10.1426 32.3828 9.84961 33.0469 9.49805C33.7109 9.14648 34.4238 8.75586 35.1855 8.32617C35.9668 7.89648 36.6992 7.45703 37.3828 7.00781C38.0664 6.53906 38.6621 6.08008 39.1699 5.63086C39.6973 5.18164 40.0293 4.77148 40.166 4.40039C40.3223 4.00977 40.2441 3.6582 39.9316 3.3457C39.6387 3.0332 39.0137 2.78906 38.0566 2.61328C37.5293 2.57422 36.9238 2.60352 36.2402 2.70117C35.5762 2.79883 34.9023 2.96484 34.2188 3.19922C33.5547 3.43359 32.9297 3.72656 32.3438 4.07812C31.7578 4.41016 31.2891 4.80078 30.9375 5.25ZM43.7109 4.51758C43.75 4.30273 43.8574 4.11719 44.0332 3.96094C44.2285 3.80469 44.4336 3.72656 44.6484 3.72656C44.7656 3.72656 44.873 3.77539 44.9707 3.87305C45.0879 3.95117 45.1855 4.05859 45.2637 4.19531C45.3418 4.3125 45.4102 4.43945 45.4688 4.57617C45.5273 4.69336 45.5566 4.80078 45.5566 4.89844L46.6992 15.0059C46.8164 14.8887 47.0605 14.5176 47.4316 13.8926C47.8223 13.248 48.2715 12.5059 48.7793 11.666C49.3066 10.8066 49.8633 9.91797 50.4492 9C51.0547 8.08203 51.6406 7.29102 52.207 6.62695C52.7734 5.94336 53.2812 5.46484 53.7305 5.19141C54.1797 4.89844 54.5312 4.94727 54.7852 5.33789C53.9062 6.74414 53.1348 7.93555 52.4707 8.91211C51.8066 9.86914 51.2207 10.6992 50.7129 11.4023C50.2246 12.0859 49.8047 12.6816 49.4531 13.1895C49.1211 13.6777 48.8281 14.1562 48.5742 14.625C48.3203 15.0742 48.1055 15.5527 47.9297 16.0605C47.7539 16.5488 47.5879 17.1348 47.4316 17.8184C47.4316 17.8965 47.4512 17.9648 47.4902 18.0234C47.5488 18.0625 47.6855 18.1211 47.9004 18.1992C48.1348 18.2578 48.4863 18.3066 48.9551 18.3457C49.4238 18.3848 50.0684 18.4238 50.8887 18.4629C51.709 18.502 52.7441 18.5312 53.9941 18.5508C55.2441 18.5703 56.7773 18.5801 58.5938 18.5801C58.5938 18.873 58.5156 19.166 58.3594 19.459C58.2227 19.7324 57.959 19.8691 57.5684 19.8691H47.0801C47.2363 20.416 47.3438 20.9629 47.4023 21.5098C47.4805 22.0371 47.5195 22.5645 47.5195 23.0918C47.5195 23.4434 47.4512 23.6289 47.3145 23.6484C47.1973 23.6484 46.9238 23.6484 46.4941 23.6484C46.4941 23.6484 46.4648 23.6484 46.4062 23.6484C46.3672 23.6289 46.3379 23.6191 46.3184 23.6191C46.2793 23.4824 46.2207 23.2383 46.1426 22.8867C46.0645 22.5352 45.9863 22.1641 45.9082 21.7734C45.8301 21.3828 45.752 21.0117 45.6738 20.6602C45.6152 20.2891 45.5762 20.0254 45.5566 19.8691C45.5371 19.6738 45.498 19.2539 45.4395 18.6094C45.3809 17.9648 45.3125 17.2227 45.2344 16.3828C45.1562 15.543 45.0781 14.6445 45 13.6875C44.9219 12.7305 44.8438 11.832 44.7656 10.9922C44.6875 10.1328 44.6191 9.39062 44.5605 8.76562L44.4434 7.50586C44.4434 7.44727 44.4238 7.33984 44.3848 7.18359C44.3652 7.00781 44.3262 6.82227 44.2676 6.62695C44.2285 6.43164 44.1895 6.23633 44.1504 6.04102C44.1309 5.8457 44.1113 5.70898 44.0918 5.63086C44.0918 5.61133 44.0625 5.54297 44.0039 5.42578C43.9648 5.30859 43.9258 5.19141 43.8867 5.07422C43.8477 4.95703 43.8086 4.84961 43.7695 4.75195C43.7305 4.63477 43.7109 4.55664 43.7109 4.51758ZM62.2266 22.623C62.2656 22.4277 62.5098 22.2422 62.959 22.0664C63.4082 21.8906 63.9648 21.7051 64.6289 21.5098C65.293 21.3145 66.0254 21.0996 66.8262 20.8652C67.627 20.6309 68.3984 20.3672 69.1406 20.0742C69.8828 19.7812 70.5566 19.4492 71.1621 19.0781C71.7871 18.707 72.2461 18.2773 72.5391 17.7891C72.5391 17.4961 72.3438 17.2715 71.9531 17.1152C71.582 16.959 71.0742 16.832 70.4297 16.7344C69.8047 16.6172 69.082 16.5293 68.2617 16.4707C67.4609 16.3926 66.6309 16.2949 65.7715 16.1777C64.9316 16.041 64.1016 15.8848 63.2812 15.709C62.4805 15.5137 61.7578 15.25 61.1133 14.918C60.4883 14.5664 59.9805 14.127 59.5898 13.5996C59.2188 13.0723 59.0332 12.4277 59.0332 11.666C59.0332 10.9043 59.1992 10.1523 59.5312 9.41016C59.8633 8.64844 60.3027 7.91602 60.8496 7.21289C61.416 6.50977 62.0508 5.85547 62.7539 5.25C63.4766 4.64453 64.2285 4.11719 65.0098 3.66797C65.791 3.21875 66.5625 2.86719 67.3242 2.61328C68.1055 2.35938 68.8281 2.23242 69.4922 2.23242C69.668 2.23242 69.8535 2.23242 70.0488 2.23242C70.2441 2.21289 70.4102 2.22266 70.5469 2.26172C70.7031 2.28125 70.8301 2.34961 70.9277 2.4668C71.0254 2.58398 71.0742 2.75977 71.0742 2.99414C71.0742 3.56055 70.8887 3.9707 70.5176 4.22461C70.1465 4.45898 69.6973 4.57617 69.1699 4.57617L68.0273 3.75586C67.5781 3.75586 67.0801 3.88281 66.5332 4.13672C66.0059 4.39062 65.459 4.73242 64.8926 5.16211C64.3457 5.57227 63.8086 6.05078 63.2812 6.59766C62.7539 7.14453 62.2852 7.71094 61.875 8.29688C61.4844 8.88281 61.1621 9.46875 60.9082 10.0547C60.6738 10.6406 60.5566 11.168 60.5566 11.6367C60.5566 12.3203 60.7422 12.877 61.1133 13.3066C61.5039 13.7168 62.0117 14.0488 62.6367 14.3027C63.2812 14.5371 64.0137 14.7129 64.834 14.8301C65.6543 14.9473 66.4844 15.0449 67.3242 15.123C68.1641 15.2012 68.9941 15.2793 69.8145 15.3574C70.6348 15.416 71.3574 15.5332 71.9824 15.709C72.627 15.8848 73.1348 16.1191 73.5059 16.4121C73.8965 16.7051 74.0918 17.1055 74.0918 17.6133C74.3066 17.9258 74.2578 18.2871 73.9453 18.6973C73.6523 19.0879 73.1836 19.4883 72.5391 19.8984C71.9141 20.2891 71.1621 20.6895 70.2832 21.0996C69.4238 21.4902 68.5352 21.8516 67.6172 22.1836C66.6992 22.4961 65.8105 22.7695 64.9512 23.0039C64.0918 23.2188 63.3594 23.3555 62.7539 23.4141C62.5781 23.4141 62.4219 23.3555 62.2852 23.2383C62.168 23.1211 62.1484 22.916 62.2266 22.623Z" fill="black"/>
</svg>
