<svg width="109" height="100" viewBox="0 0 109 100" fill="none" xmlns="http://www.w3.org/2000/svg">
<path d="M70.2228 58.3332H66.6437L65.3751 57.2082C70.8118 51.3749 73.6208 43.4166 72.0804 34.9583C69.951 23.375 59.4401 14.125 46.7545 12.7083C27.5903 10.5416 11.4615 25.375 13.8174 42.9999C15.3578 54.6666 25.4156 64.3332 38.0106 66.2916C47.2076 67.7082 55.861 65.1249 62.2037 60.1249L63.427 61.2916V64.5832L82.6819 82.2915C84.5394 83.9999 87.5749 83.9999 89.4324 82.2915C91.2899 80.5832 91.2899 77.7916 89.4324 76.0832L70.2228 58.3332ZM43.0395 58.3332C31.7584 58.3332 22.652 49.9583 22.652 39.5833C22.652 29.2083 31.7584 20.8333 43.0395 20.8333C54.3206 20.8333 63.427 29.2083 63.427 39.5833C63.427 49.9583 54.3206 58.3332 43.0395 58.3332Z" fill="#FE982C" fill-opacity="0.8"/>
</svg>
